<svg width="35" height="46" viewBox="0 0 35 46" fill="none" xmlns="http://www.w3.org/2000/svg">
<g clip-path="url(#clip0)">
<path d="M30.6496 5.3963C30.153 5.3963 29.6841 5.47906 29.2154 5.67218L23.8079 7.85158C21.7389 7.10672 19.5319 6.7205 17.2421 6.7205C14.98 6.7205 12.773 7.10672 10.6763 7.85158L5.2692 5.67218C4.80021 5.47906 4.33122 5.3963 3.83465 5.3963C1.71042 5.3963 0 7.10672 0 9.23095L0.0275874 22.5833C0.0275874 22.6933 0.0275874 22.804 0.0275874 22.887C0.634511 30.8043 8.19346 37.0115 17.2146 37.0115C26.2632 37.0115 33.8222 30.8043 34.4015 22.887C34.4015 22.7767 34.4015 22.6936 34.4015 22.5833L34.4291 9.20337C34.4843 7.10645 32.7739 5.3963 30.6496 5.3963ZM30.0427 22.5554C29.6289 28.1832 24.0011 32.5972 17.2421 32.5972C10.5108 32.5972 4.88297 28.1832 4.44157 22.5554L4.41399 10.0583L9.2142 12.017C10.097 12.3756 11.1177 12.4032 12.0005 12.0722C13.6558 11.4653 15.3938 11.1342 17.2146 11.1342C19.0353 11.1342 20.8009 11.4377 22.4562 12.0722C23.3387 12.4032 24.3594 12.4032 25.2425 12.017L30.0427 10.0583V22.5554Z" fill="white"/>
<path d="M11.6695 25.6455C13.1931 25.6455 14.4283 24.4103 14.4283 22.8867C14.4283 21.3631 13.1931 20.128 11.6695 20.128C10.1459 20.128 8.91077 21.3631 8.91077 22.8867C8.91077 24.4103 10.1459 25.6455 11.6695 25.6455Z" fill="white"/>
<path d="M22.8148 25.6455C24.3384 25.6455 25.5735 24.4103 25.5735 22.8867C25.5735 21.3631 24.3384 20.128 22.8148 20.128C21.2912 20.128 20.056 21.3631 20.056 22.8867C20.056 24.4103 21.2912 25.6455 22.8148 25.6455Z" fill="white"/>
</g>
<defs>
<clipPath id="clip0">
<rect width="34.8966" height="45.4713" fill="white"/>
</clipPath>
</defs>
</svg>
