<svg width="122" height="40" viewBox="0 0 122 40" fill="none" xmlns="http://www.w3.org/2000/svg">
<path d="M38.5439 20.3106C38.5439 17.9453 39.0924 15.8371 40.1893 13.986C41.2863 12.1349 42.7832 10.7065 44.68 9.70101C46.5768 8.69547 48.6964 8.1927 51.0389 8.1927C52.273 8.1927 53.4156 8.35267 54.4669 8.67261C55.5295 8.98113 56.4494 9.41534 57.2264 9.97524C58.0148 10.5237 58.6947 11.1236 59.266 11.7749C59.8488 12.4148 60.3573 13.129 60.7915 13.9174L56.5065 16.0256C56.0037 15.0429 55.2553 14.2317 54.2612 13.5918C53.2671 12.9519 52.193 12.6319 51.0389 12.6319C48.9021 12.6319 47.1367 13.3575 45.7427 14.8087C44.36 16.2599 43.6687 18.0938 43.6687 20.3106C43.6687 22.5274 44.36 24.367 45.7427 25.8296C47.1367 27.2808 48.9021 28.0064 51.0389 28.0064C52.193 28.0064 53.2671 27.6865 54.2612 27.0466C55.2553 26.3953 56.0037 25.5783 56.5065 24.5956L60.7915 26.6695C60.3458 27.4579 59.8374 28.1778 59.266 28.8291C58.7061 29.469 58.032 30.0689 57.2435 30.6288C56.4551 31.1887 55.5295 31.6286 54.4669 31.9486C53.4156 32.2685 52.273 32.4285 51.0389 32.4285C49.2906 32.4285 47.6452 32.1314 46.1026 31.5372C44.5714 30.943 43.246 30.126 42.1261 29.0862C41.0178 28.035 40.1436 26.7552 39.5037 25.2469C38.8639 23.7271 38.5439 22.0817 38.5439 20.3106ZM62.6083 26.8066C62.6083 26.041 62.7226 25.344 62.9511 24.7155C63.1911 24.0757 63.4996 23.55 63.8767 23.1387C64.2652 22.7273 64.7165 22.3845 65.2307 22.1103C65.7563 21.8246 66.2877 21.6247 66.8247 21.5104C67.3618 21.3847 67.9102 21.3219 68.4702 21.3219C69.6128 21.3219 70.6526 21.5047 71.5896 21.8703C72.5266 22.2246 73.275 22.733 73.8349 23.3958V21.2533C73.8349 20.3963 73.4921 19.7107 72.8065 19.1965C72.1324 18.6709 71.2354 18.4081 70.1156 18.4081C68.2988 18.4081 66.6705 19.0765 65.2307 20.4134L63.4824 17.294C65.4592 15.5114 67.9274 14.6202 70.8869 14.6202C71.9153 14.6202 72.8523 14.7287 73.6978 14.9458C74.5548 15.1629 75.3375 15.5114 76.046 15.9913C76.7659 16.4713 77.3258 17.1397 77.7257 17.9967C78.1256 18.8537 78.3256 19.8707 78.3256 21.0476V32H73.8349V30.2175C73.2522 30.9145 72.4866 31.4572 71.5382 31.8457C70.6012 32.2342 69.5785 32.4285 68.4702 32.4285C67.7731 32.4285 67.0818 32.3085 66.3962 32.0686C65.7221 31.8286 65.0993 31.4858 64.528 31.0402C63.9566 30.5945 63.4939 30.0061 63.1396 29.2748C62.7854 28.532 62.6083 27.7093 62.6083 26.8066ZM67.9731 25.0069C67.3675 25.4754 67.0647 26.0982 67.0647 26.8752C67.0647 27.6522 67.3675 28.2692 67.9731 28.7263C68.5787 29.1719 69.3386 29.3947 70.2527 29.3947C70.9954 29.3947 71.6867 29.269 72.3266 29.0177C72.9779 28.7663 73.4807 28.4006 73.8349 27.9207V25.8296C73.4693 25.3497 72.9608 24.9784 72.3095 24.7155C71.6696 24.4413 70.984 24.3042 70.2527 24.3042C69.35 24.3042 68.5901 24.5384 67.9731 25.0069ZM80.8109 18.9394V15.0487H83.6218V10.4037H88.0782V15.0487H91.5233V18.9394H88.0782V26.5667C88.0782 27.1151 88.2153 27.5665 88.4895 27.9207C88.7638 28.2749 89.1409 28.452 89.6208 28.452C89.9407 28.452 90.2492 28.4006 90.5463 28.2978C90.8434 28.1949 91.0548 28.0693 91.1805 27.9207L92.1232 31.3315C91.3119 32.0628 90.0721 32.4285 88.4038 32.4285C86.8498 32.4285 85.6615 32.0343 84.8387 31.2458C84.0275 30.446 83.6218 29.2805 83.6218 27.7493V18.9394H80.8109Z" fill="white"/>
<path d="M96.5779 5.20577V4.34349H102.455V5.20577H99.993V12.0927H99.0286V5.20577H96.5779ZM103.737 12.0927V4.34349H105.116L107.532 10.3171L109.938 4.34349H111.322V12.0927H110.357V5.57451L107.731 12.0927H107.339L104.702 5.57451V12.0927H103.737Z" fill="white"/>
<g clip-path="url(#clip0)">
<path d="M25.4352 6.13797C25.0231 6.13797 24.6339 6.20665 24.2449 6.36691L19.7575 8.17553C18.0404 7.55739 16.2089 7.23688 14.3087 7.23688C12.4314 7.23688 10.5999 7.55739 8.85995 8.17553L4.37274 6.36691C3.98355 6.20665 3.59435 6.13797 3.18226 6.13797C1.41942 6.13797 0 7.55739 0 9.32023L0.0228939 20.4009C0.0228939 20.4922 0.0228939 20.584 0.0228939 20.653C0.526561 27.2233 6.7995 32.3744 14.2858 32.3744C21.795 32.3744 28.068 27.2233 28.5487 20.653C28.5487 20.5614 28.5487 20.4925 28.5487 20.4009L28.5716 9.29733C28.6174 7.55717 27.198 6.13797 25.4352 6.13797ZM24.9315 20.3778C24.5881 25.0481 19.9177 28.7112 14.3087 28.7112C8.72259 28.7112 4.05223 25.0481 3.68592 20.3778L3.66303 10.0068L7.64658 11.6323C8.37918 11.9299 9.22626 11.9528 9.95886 11.6781C11.3325 11.1744 12.7748 10.8997 14.2858 10.8997C15.7968 10.8997 17.262 11.1515 18.6357 11.6781C19.368 11.9528 20.2151 11.9528 20.948 11.6323L24.9315 10.0068V20.3778Z" fill="white"/>
<path d="M9.68417 22.9421C10.9486 22.9421 11.9736 21.9171 11.9736 20.6527C11.9736 19.3883 10.9486 18.3633 9.68417 18.3633C8.41977 18.3633 7.39478 19.3883 7.39478 20.6527C7.39478 21.9171 8.41977 22.9421 9.68417 22.9421Z" fill="white"/>
<path d="M18.9333 22.9421C20.1977 22.9421 21.2227 21.9171 21.2227 20.6527C21.2227 19.3883 20.1977 18.3633 18.9333 18.3633C17.6689 18.3633 16.6439 19.3883 16.6439 20.6527C16.6439 21.9171 17.6689 22.9421 18.9333 22.9421Z" fill="white"/>
</g>
<defs>
<clipPath id="clip0">
<rect width="28.9596" height="37.7352" fill="white" transform="translate(0 1.65973)"/>
</clipPath>
</defs>
</svg>
